# xmcd CD database file
#
# Track frame offsets:
#	150
#	24987
#	61530
#	99936
#	126189
#	136365
#	169647
#	198713
#	207425
#	250463
#	278458
#	299395
#
# Disc length: 4138 seconds
#
# Revision: 0
# Processed by: cddbd v1.5.2PL0 Copyright (c) Steve Scherf et al.
# Submitted via: CDex 1.70beta2
#
DISCID=aa10280c
DTITLE=Rosset Meyer Geiger - What Happended
DYEAR=2010
DGENRE=Jazz
TTITLE0=The Beginning
TTITLE1=Die Sau
TTITLE2=Feuer Von Gibraltar
TTITLE3=Tritt O'Nuss
TTITLE4=Another Place
TTITLE5=To Do
TTITLE6=Fur Gregor
TTITLE7=Fragment
TTITLE8=Zebra und Dromedar
TTITLE9=Dribbling
TTITLE10=Matteo
TTITLE11=Mannsgogger's Groove (Nei, Nei, Nei) ... What Happened?
EXTD=YEAR: 2010
EXTT0=
EXTT1=
EXTT2=
EXTT3=
EXTT4=
EXTT5=
EXTT6=
EXTT7=
EXTT8=
EXTT9=
EXTT10=
EXTT11=
PLAYORDER=
